<svg width="300" height="281" viewBox="0 0 300 281" fill="none" xmlns="http://www.w3.org/2000/svg">
<path d="M-7.82865 146.558L-8.2907 146.367L-7.82865 146.558ZM85.8676 -80L86.3297 -79.8089L86.6349 -80.5471L85.8376 -80.4991L85.8676 -80ZM96.4061 148.631H96.9061V148.131H96.4061V148.631ZM96.4061 280V280.5H96.9061V280H96.4061ZM118.926 -78.8617L118.99 -79.3575L118.426 -79.431V-78.8617H118.926ZM118.926 54.7988H118.426V55.2988H118.926V54.7988ZM226.88 56.8876L227.34 57.0839V57.0839L226.88 56.8876ZM133.337 276.045L132.877 275.849L132.497 276.74L133.443 276.534L133.337 276.045ZM193.982 249.952H194.482V249.008L193.701 249.539L193.982 249.952ZM193.982 272.487H193.482V272.987H193.982V272.487ZM299.074 272.487V272.987H299.574V272.487H299.074ZM299.074 -72.8165H299.574V-73.3165H299.074V-72.8165ZM193.982 -72.8165V-73.3165H193.482V-72.8165H193.982ZM193.982 -50.2683L193.701 -49.8547L194.482 -49.3241V-50.2683H193.982ZM-7.36661 146.749L86.3297 -79.8089L85.4056 -80.1911L-8.2907 146.367L-7.36661 146.749ZM-6.44251 148.131C-7.15496 148.131 -7.63888 147.407 -7.36661 146.749L-8.2907 146.367C-8.83524 147.683 -7.86739 149.131 -6.44251 149.131V148.131ZM96.4061 148.131H-6.44251V149.131H96.4061V148.131ZM96.9061 280V148.631H95.9061V280H96.9061ZM96.4061 279.5C96.4061 279.5 96.4061 279.5 96.4061 279.5H96.4061C96.4061 279.5 96.4061 279.5 96.4061 279.5C96.4061 279.5 96.4061 279.5 96.406 279.5H96.406H96.406C96.406 279.5 96.406 279.5 96.406 279.5C96.406 279.5 96.406 279.5 96.406 279.5H96.406C96.4059 279.5 96.4059 279.5 96.4059 279.5C96.4059 279.5 96.4059 279.5 96.4059 279.5C96.4059 279.5 96.4059 279.5 96.4059 279.5H96.4059C96.4059 279.5 96.4059 279.5 96.4059 279.5C96.4059 279.5 96.4059 279.5 96.4059 279.5H96.4059H96.4058C96.4058 279.5 96.4058 279.5 96.4058 279.5C96.4058 279.5 96.4058 279.5 96.4058 279.5H96.4058H96.4058C96.4058 279.5 96.4058 279.5 96.4058 279.5C96.4058 279.5 96.4058 279.5 96.4057 279.5H96.4057H96.4057C96.4057 279.5 96.4057 279.5 96.4057 279.5C96.4057 279.5 96.4057 279.5 96.4057 279.5C96.4057 279.5 96.4057 279.5 96.4057 279.5H96.4057C96.4056 279.5 96.4056 279.5 96.4056 279.5C96.4056 279.5 96.4056 279.5 96.4056 279.5C96.4056 279.5 96.4056 279.5 96.4056 279.5H96.4056H96.4056C96.4056 279.5 96.4056 279.5 96.4056 279.5C96.4056 279.5 96.4056 279.5 96.4055 279.5C96.4055 279.5 96.4055 279.5 96.4055 279.5H96.4055C96.4055 279.5 96.4055 279.5 96.4055 279.5C96.4055 279.5 96.4055 279.5 96.4055 279.5C96.4055 279.5 96.4055 279.5 96.4055 279.5H96.4055H96.4054C96.4054 279.5 96.4054 279.5 96.4054 279.5C96.4054 279.5 96.4054 279.5 96.4054 279.5C96.4054 279.5 96.4054 279.5 96.4054 279.5H96.4054H96.4054C96.4053 279.5 96.4053 279.5 96.4053 279.5C96.4053 279.5 96.4053 279.5 96.4053 279.5C96.4053 279.5 96.4053 279.5 96.4053 279.5H96.4053C96.4053 279.5 96.4053 279.5 96.4053 279.5C96.4053 279.5 96.4053 279.5 96.4053 279.5C96.4053 279.5 96.4053 279.5 96.4053 279.5H96.4052H96.4052C96.4052 279.5 96.4052 279.5 96.4052 279.5C96.4052 279.5 96.4052 279.5 96.4052 279.5C96.4052 279.5 96.4052 279.5 96.4052 279.5H96.4052C96.4052 279.5 96.4052 279.5 96.4052 279.5C96.4051 279.5 96.4051 279.5 96.4051 279.5C96.4051 279.5 96.4051 279.5 96.4051 279.5H96.4051H96.4051C96.4051 279.5 96.4051 279.5 96.4051 279.5C96.4051 279.5 96.4051 279.5 96.4051 279.5H96.405H96.405C96.405 279.5 96.405 279.5 96.405 279.5C96.405 279.5 96.405 279.5 96.405 279.5H96.405H96.405C96.405 279.5 96.405 279.5 96.405 279.5C96.405 279.5 96.405 279.5 96.4049 279.5H96.4049C96.4049 279.5 96.4049 279.5 96.4049 279.5C96.4049 279.5 96.4049 279.5 96.4049 279.5C96.4049 279.5 96.4049 279.5 96.4049 279.5H96.4049C96.4048 279.5 96.4048 279.5 96.4048 279.5C96.4048 279.5 96.4048 279.5 96.4048 279.5H96.4048H96.4048C96.4048 279.5 96.4048 279.5 96.4048 279.5C96.4048 279.5 96.4048 279.5 96.4048 279.5H96.4048C96.4047 279.5 96.4047 279.5 96.4047 279.5V280.5C96.4047 280.5 96.4047 280.5 96.4048 280.5H96.4048C96.4048 280.5 96.4048 280.5 96.4048 280.5C96.4048 280.5 96.4048 280.5 96.4048 280.5H96.4048H96.4048C96.4048 280.5 96.4048 280.5 96.4048 280.5C96.4048 280.5 96.4048 280.5 96.4049 280.5H96.4049C96.4049 280.5 96.4049 280.5 96.4049 280.5C96.4049 280.5 96.4049 280.5 96.4049 280.5C96.4049 280.5 96.4049 280.5 96.4049 280.5H96.4049C96.405 280.5 96.405 280.5 96.405 280.5C96.405 280.5 96.405 280.5 96.405 280.5H96.405H96.405C96.405 280.5 96.405 280.5 96.405 280.5C96.405 280.5 96.405 280.5 96.405 280.5H96.405H96.4051C96.4051 280.5 96.4051 280.5 96.4051 280.5C96.4051 280.5 96.4051 280.5 96.4051 280.5H96.4051H96.4051C96.4051 280.5 96.4051 280.5 96.4051 280.5C96.4051 280.5 96.4051 280.5 96.4052 280.5C96.4052 280.5 96.4052 280.5 96.4052 280.5H96.4052C96.4052 280.5 96.4052 280.5 96.4052 280.5C96.4052 280.5 96.4052 280.5 96.4052 280.5C96.4052 280.5 96.4052 280.5 96.4052 280.5H96.4052H96.4053C96.4053 280.5 96.4053 280.5 96.4053 280.5C96.4053 280.5 96.4053 280.5 96.4053 280.5C96.4053 280.5 96.4053 280.5 96.4053 280.5H96.4053C96.4053 280.5 96.4053 280.5 96.4053 280.5C96.4053 280.5 96.4053 280.5 96.4053 280.5C96.4053 280.5 96.4053 280.5 96.4054 280.5H96.4054H96.4054C96.4054 280.5 96.4054 280.5 96.4054 280.5C96.4054 280.5 96.4054 280.5 96.4054 280.5C96.4054 280.5 96.4054 280.5 96.4054 280.5H96.4055H96.4055C96.4055 280.5 96.4055 280.5 96.4055 280.5C96.4055 280.5 96.4055 280.5 96.4055 280.5C96.4055 280.5 96.4055 280.5 96.4055 280.5H96.4055C96.4055 280.5 96.4055 280.5 96.4055 280.5C96.4056 280.5 96.4056 280.5 96.4056 280.5C96.4056 280.5 96.4056 280.5 96.4056 280.5H96.4056H96.4056C96.4056 280.5 96.4056 280.5 96.4056 280.5C96.4056 280.5 96.4056 280.5 96.4056 280.5C96.4056 280.5 96.4056 280.5 96.4057 280.5H96.4057C96.4057 280.5 96.4057 280.5 96.4057 280.5C96.4057 280.5 96.4057 280.5 96.4057 280.5C96.4057 280.5 96.4057 280.5 96.4057 280.5H96.4057H96.4057C96.4058 280.5 96.4058 280.5 96.4058 280.5C96.4058 280.5 96.4058 280.5 96.4058 280.5H96.4058H96.4058C96.4058 280.5 96.4058 280.5 96.4058 280.5C96.4058 280.5 96.4058 280.5 96.4058 280.5H96.4059H96.4059C96.4059 280.5 96.4059 280.5 96.4059 280.5C96.4059 280.5 96.4059 280.5 96.4059 280.5H96.4059C96.4059 280.5 96.4059 280.5 96.4059 280.5C96.4059 280.5 96.4059 280.5 96.4059 280.5C96.4059 280.5 96.4059 280.5 96.406 280.5H96.406C96.406 280.5 96.406 280.5 96.406 280.5C96.406 280.5 96.406 280.5 96.406 280.5H96.406H96.406C96.4061 280.5 96.4061 280.5 96.4061 280.5C96.4061 280.5 96.4061 280.5 96.4061 280.5H96.4061C96.4061 280.5 96.4061 280.5 96.4061 280.5V279.5ZM96.4047 279.5C-0.734894 279.5 -79.5 199.074 -79.5 99.8419H-80.5C-80.5 199.607 -1.30692 280.5 96.4047 280.5V279.5ZM-79.5 99.8419C-79.5 4.2133 -6.35099 -73.9508 85.8977 -79.5009L85.8376 -80.4991C-6.95391 -74.9163 -80.5 3.69936 -80.5 99.8419H-79.5ZM118.426 -78.8617V54.7988H119.426V-78.8617H118.426ZM118.926 55.2988H225.5V54.2988H118.926V55.2988ZM225.5 55.2988C226.217 55.2988 226.701 56.0316 226.42 56.6913L227.34 57.0839C227.903 55.7645 226.935 54.2988 225.5 54.2988V55.2988ZM226.42 56.6913L132.877 275.849L133.797 276.242L227.34 57.0839L226.42 56.6913ZM193.701 249.539C175.618 261.824 155.181 270.781 133.23 275.557L133.443 276.534C155.522 271.731 176.077 262.721 194.263 250.366L193.701 249.539ZM194.482 272.487V249.952H193.482V272.487H194.482ZM299.074 271.987H193.982V272.987H299.074V271.987ZM298.574 -72.8165V272.487H299.574V-72.8165H298.574ZM193.982 -72.3165H299.074V-73.3165H193.982V-72.3165ZM194.482 -50.2683V-72.8165H193.482V-50.2683H194.482ZM118.861 -78.3659C146.28 -74.7977 171.727 -64.7826 193.701 -49.8547L194.263 -50.6818C172.164 -65.6948 146.569 -75.7685 118.99 -79.3575L118.861 -78.3659Z" fill="#30B9D9"/>
</svg>
