<svg width="18" height="11" viewBox="0 0 18 11" fill="none" xmlns="http://www.w3.org/2000/svg">
<path d="M7.34778 5.07732C7.34778 5.07732 8.968 4.95859 8.968 3.08324C8.968 1.20775 7.64245 0.29248 5.96336 0.29248H0.43811V10.773H5.96336C5.96336 10.773 9.33632 10.8781 9.33632 7.6796C9.33632 7.67964 9.48337 5.07732 7.34778 5.07732ZM5.56566 2.15527H5.96336C5.96336 2.15527 6.7144 2.15527 6.7144 3.24572C6.7144 4.33603 6.27271 4.49411 5.77171 4.49411H2.8726V2.15527H5.56566ZM5.80722 8.91024H2.8726V6.10946H5.96336C5.96336 6.10946 7.08275 6.09497 7.08275 7.54877C7.08275 8.77465 6.24667 8.90098 5.80722 8.91024ZM13.8347 2.95902C9.75141 2.95902 9.75503 6.98594 9.75503 6.98594C9.75503 6.98594 9.47486 10.9922 13.8347 10.9922C13.8347 10.9922 17.4679 11.1971 17.4679 8.20527H15.5994C15.5994 8.20527 15.6618 9.33193 13.8971 9.33193C13.8971 9.33193 12.0283 9.45554 12.0283 7.50856H17.5303C17.5303 7.50853 18.1323 2.95902 13.8347 2.95902ZM12.0077 6.10946C12.0077 6.10946 12.2359 4.49408 13.8763 4.49408C15.5163 4.49408 15.4957 6.10946 15.4957 6.10946H12.0077ZM15.931 2.20051H11.5503V0.909915H15.931V2.20051Z" fill="white"/>
</svg>
