<svg width="18" height="18" viewBox="0 0 18 18" fill="none" xmlns="http://www.w3.org/2000/svg">
<path d="M0.437927 9.00008C0.437927 7.44748 0.820379 6.01477 1.58525 4.70191C2.35013 3.38905 3.38901 2.35019 4.70185 1.58531C6.01471 0.820423 7.44744 0.437988 9.00002 0.437988C10.5526 0.437988 11.9853 0.820423 13.2982 1.58531C14.611 2.35019 15.6499 3.38905 16.4148 4.70191C17.1797 6.01477 17.5621 7.44748 17.5621 9.00008C17.5621 10.5527 17.1797 11.9854 16.4148 13.2983C15.6499 14.6111 14.611 15.65 13.2982 16.4149C11.9853 17.1797 10.5526 17.5622 9.00002 17.5622C7.44744 17.5622 6.01471 17.1797 4.70185 16.4149C3.38901 15.65 2.35013 14.6111 1.58525 13.2983C0.820379 11.9854 0.437927 10.5527 0.437927 9.00008ZM1.85923 9.00008C1.85923 10.781 2.45858 12.3507 3.65727 13.7092C4.20525 12.6361 5.07288 11.6144 6.26015 10.644C7.44744 9.67363 8.60616 9.06287 9.73636 8.81171C9.56512 8.41216 9.39959 8.05255 9.23976 7.73289C7.2762 8.36078 5.1528 8.67472 2.86956 8.67472C2.42433 8.67472 2.09327 8.66902 1.87636 8.6576C1.87636 8.70327 1.87352 8.76034 1.8678 8.82884C1.86209 8.89734 1.85923 8.95441 1.85923 9.00008ZM2.08185 7.23629C2.33301 7.25912 2.70404 7.27054 3.19492 7.27054C5.10142 7.27054 6.91087 7.01367 8.62329 6.49995C7.75567 4.95877 6.80242 3.67446 5.76355 2.64701C4.86169 3.10366 4.08824 3.73725 3.44322 4.54779C2.79822 5.35833 2.34443 6.25451 2.08185 7.23629ZM4.63335 14.6339C5.92339 15.6386 7.37894 16.1409 9.00002 16.1409C9.84482 16.1409 10.6839 15.981 11.5173 15.6614C11.289 13.7092 10.8437 11.8199 10.1816 9.99328C9.13131 10.2216 8.07247 10.7981 7.00505 11.7228C5.93765 12.6475 5.14708 13.6179 4.63335 14.6339ZM7.25335 2.09903C8.25798 3.13791 9.18839 4.43363 10.0446 5.98622C11.5972 5.3355 12.7673 4.50784 13.5551 3.50322C12.2308 2.40727 10.7124 1.8593 9.00002 1.8593C8.4178 1.8593 7.83557 1.93921 7.25335 2.09903ZM10.6611 7.20204C10.8323 7.56735 11.0264 8.0297 11.2433 8.5891C12.0881 8.50918 13.0071 8.46923 14.0003 8.46923C14.7081 8.46923 15.4102 8.48635 16.1066 8.5206C16.0152 6.968 15.4558 5.58667 14.4284 4.37655C13.6863 5.48392 12.4306 6.42575 10.6611 7.20204ZM11.6714 9.78779C12.2536 11.4774 12.6475 13.2126 12.853 14.9935C13.7548 14.4113 14.4912 13.6636 15.062 12.7503C15.6328 11.837 15.9753 10.8495 16.0894 9.78779C15.2561 9.73072 14.4969 9.70217 13.8119 9.70217C13.184 9.70217 12.4705 9.73072 11.6714 9.78779Z" fill="white"/>
</svg>
