<svg width="41" height="41" viewBox="0 0 41 41" fill="none" xmlns="http://www.w3.org/2000/svg">
<path fill-rule="evenodd" clip-rule="evenodd" d="M0 20.4995C0 9.1777 9.17819 -0.000488281 20.5 -0.000488281C31.8218 -0.000488281 41 9.1777 41 20.4995C41 31.8213 31.8218 40.9995 20.5 40.9995C9.17819 40.9995 0 31.8213 0 20.4995ZM36.5432 20.4995C36.5432 11.64 29.3618 4.45385 20.5 4.45385C11.6382 4.45385 4.45687 11.64 4.45684 20.4995C4.45684 29.3591 11.6382 36.5427 20.5 36.5427C29.3618 36.5427 36.5432 29.3591 36.5432 20.4995ZM26.4314 14.6229V17.8209C27.7024 17.8209 28.9734 19.1001 28.9734 20.5925V28.0545C28.9734 29.3337 27.7024 30.6129 26.2196 30.6129H14.5687C13.2977 30.6129 12.0267 29.3337 12.0267 27.8413V20.3793C12.0267 19.1001 13.2977 17.8209 14.5687 17.8209V14.6229C14.5687 11.6381 17.5344 9.29286 20.5001 9.29286C23.4657 9.29286 26.4314 11.6381 26.4314 14.6229ZM17.3226 17.8209H23.6776V14.6229C23.6776 12.9173 22.1947 11.8513 20.5001 11.8513C18.8054 11.8513 17.3226 12.9173 17.3226 14.6229V17.8209Z" fill="white"/>
</svg>
