<svg width="41" height="41" viewBox="0 0 41 41" fill="none" xmlns="http://www.w3.org/2000/svg">
<path d="M20.5 -0.000488281C9.17819 -0.000488281 0 9.1777 0 20.4995C0 31.8213 9.17819 40.9995 20.5 40.9995C31.8218 40.9995 41 31.8213 41 20.4995C41 9.1777 31.8218 -0.000488281 20.5 -0.000488281ZM20.5 4.45385C29.3618 4.45385 36.5432 11.64 36.5432 20.4995C36.5432 29.3591 29.3618 36.5427 20.5 36.5427C11.6382 36.5427 4.45684 29.3591 4.45684 20.4995C4.45687 11.64 11.6382 4.45385 20.5 4.45385ZM28.3552 10.765L16.4736 22.6491L12.6198 18.7953L8.83861 22.574L12.6924 26.4278L16.4986 30.234L20.2773 26.4528L32.1614 14.5712L28.3552 10.765Z" fill="white"/>
</svg>
