<svg width="58" height="39" viewBox="0 0 58 39" fill="none" xmlns="http://www.w3.org/2000/svg">
<g clip-path="url(#clip0_498_2198)">
<path fill-rule="evenodd" clip-rule="evenodd" d="M51.287 34.875H33.749C33.613 35.63 32.941 36.22 32.101 36.22H25.096C24.256 36.22 23.585 35.63 23.448 34.875H5.92V3.06C5.92 2.768 6.165 2.522 6.457 2.522H50.75C51.04 2.522 51.287 2.768 51.287 3.06V34.875ZM57.197 34.875H53.8V2.331C53.8 1.046 52.758 0 51.476 0H5.73C4.448 0 3.406 1.046 3.406 2.331V34.875H0V36.22H0.005L2.865 38.753H54.34L57.2 36.22H57.195V34.875H57.197Z" fill="#30B9D9"/>
<path fill-rule="evenodd" clip-rule="evenodd" d="M35.128 24.893H28.708H28.349V25.252V26.26V26.619H28.708H35.128H35.486V26.26V25.252V24.893H35.128ZM25.285 12.401L19.637 15.284L19.441 15.384V15.604V16.379V16.6L19.637 16.7L25.285 19.571L25.805 19.835V19.25V18.424V18.203L25.609 18.104L21.43 15.986L25.609 13.867L25.805 13.768V13.547V12.721V12.135L25.285 12.401ZM31.918 12.135H30.872H30.643L30.547 12.344L24.275 26.11L24.043 26.619H24.601H25.646H25.877L25.972 26.408L32.244 12.643L32.475 12.135H31.918Z" fill="#FF8C27"/>
<path fill-rule="evenodd" clip-rule="evenodd" d="M40.123 19.377C40.123 26.39 34.455 32.076 27.463 32.076C20.473 32.076 14.804 26.39 14.804 19.376C14.804 12.363 20.472 6.677 27.464 6.677C34.455 6.677 40.123 12.363 40.123 19.377Z" stroke="#FF8C27" stroke-width="2.049"/>
</g>
<defs>
<clipPath id="clip0_498_2198">
<rect width="58" height="39" fill="white"/>
</clipPath>
</defs>
</svg>
