<svg width="48" height="48" viewBox="0 0 48 48" fill="none" xmlns="http://www.w3.org/2000/svg">
<g clip-path="url(#clip0_498_2186)">
<path fill-rule="evenodd" clip-rule="evenodd" d="M23.7208 19.3262C26.2805 19.3262 28.3563 21.3991 28.3563 23.9529C28.3563 26.5086 26.2805 28.5804 23.7208 28.5804C21.1602 28.5804 19.0854 26.5086 19.0854 23.9529C19.0854 21.3991 21.1602 19.3262 23.7208 19.3262ZM23.7208 30.8942C27.5608 30.8942 30.674 27.786 30.674 23.9529C30.674 20.1217 27.5599 17.0134 23.7208 17.0134C19.8808 17.0134 16.7667 20.1217 16.7667 23.9529C16.7667 27.786 19.8808 30.8942 23.7208 30.8942Z" fill="#FF8C27"/>
<path fill-rule="evenodd" clip-rule="evenodd" d="M2.74776 12.999L13.0335 2.73285L14.5744 4.27081L12.3458 6.49448L13.7202 7.86591L15.9478 5.64224L17.4887 7.18019L15.2611 9.40387L16.6335 10.7753L18.862 8.55162L20.6508 10.3364C15.1553 11.1857 10.3161 14.1519 6.768 17.0124L2.74776 12.999ZM23.7208 12.0292C33.9164 12.0292 42.6367 21.2031 44.7948 23.6667C42.6397 26.1314 33.9311 35.3043 23.7208 35.3043C13.5242 35.3043 4.80392 26.1294 2.64686 23.6667C4.80098 21.2011 13.5105 12.0292 23.7208 12.0292ZM36.3517 6.61203L40.8069 11.0594L37.296 14.5644C35.5112 13.4104 33.5285 12.3534 31.3989 11.556L36.3517 6.61203ZM40.2377 2.73285L44.6939 7.18019L42.1812 9.68795L37.7251 5.2406L40.2377 2.73285ZM43.153 32.7965L44.6939 34.3345L34.4082 44.6006L26.7899 36.997C32.2834 36.1477 37.1246 33.1825 40.6717 30.3211L41.7786 31.4251L39.551 33.6488L40.9244 35.0202L43.153 32.7965ZM11.089 40.7214L6.63282 36.2741L10.1447 32.7691C11.9295 33.9221 13.9112 34.979 16.0418 35.7764L11.089 40.7214ZM3.88016 43.4692L5.68261 38.0687L9.29045 41.6687L3.88016 43.4692ZM0.612245 23.0643L0.135184 23.6667L0.612245 24.2692C0.837551 24.5533 3.83314 28.2698 8.51559 31.6533L4.4111 35.75L0.809143 46.5353L11.614 42.9402L18.1136 36.4533C19.9043 36.95 21.7812 37.2439 23.7208 37.2439C23.9069 37.2439 24.0891 37.2321 24.2723 37.2272L34.4082 47.3435L47.4416 34.3345L42.1607 29.0643C44.9535 26.5986 46.6609 24.4798 46.8294 24.2692L47.3064 23.6667L46.8294 23.0643C46.6041 22.7802 43.6085 19.0626 38.926 15.6791L47.4416 7.18019L40.2377 -0.0100098L29.327 10.8801C27.5373 10.3835 25.6604 10.0896 23.7208 10.0896C23.5347 10.0896 23.3525 10.1013 23.1683 10.1062L13.0335 -0.0100098L0 12.999L5.28 18.2692C2.4862 20.7348 0.780735 22.8537 0.612245 23.0643Z" fill="#30B9D9"/>
</g>
<defs>
<clipPath id="clip0_498_2186">
<rect width="48" height="48" fill="white"/>
</clipPath>
</defs>
</svg>
