<svg width="62" height="42" viewBox="0 0 62 42" fill="none" xmlns="http://www.w3.org/2000/svg">
<g clip-path="url(#clip0_498_2203)">
<mask id="mask0_498_2203" style="mask-type:luminance" maskUnits="userSpaceOnUse" x="0" y="0" width="62" height="42">
<path d="M44.4397 0.543213C43.8145 0.543213 43.3028 1.05811 43.3028 1.68733C43.3028 2.31655 43.8145 2.83145 44.4397 2.83145H51.2622V25.7189H10.3278V2.83145H17.1503C17.7755 2.83145 18.2871 2.31655 18.2871 1.68733C18.2871 1.05811 17.7755 0.543213 17.1503 0.543213H9.19095C8.5649 0.543213 8.05329 1.05811 8.05329 1.68733V26.5579L0.246815 40.0225C0.038415 40.3767 0.038415 40.8142 0.246815 41.1675C0.444967 41.5208 0.824187 41.74 1.23245 41.74H60.3584C60.7658 41.74 61.145 41.5208 61.344 41.1675C61.5422 40.8048 61.5422 40.3767 61.344 40.0225L53.5358 26.5484V1.68733C53.5358 1.05811 53.0242 0.543213 52.3982 0.543213H44.4397ZM9.84519 28.008H51.7456L58.3777 39.4509H3.2114L9.84519 28.008Z" fill="white"/>
</mask>
<g mask="url(#mask0_498_2203)">
<path fill-rule="evenodd" clip-rule="evenodd" d="M-4.18085 46.0381H65.7631V-3.75464H-4.18085V46.0381Z" fill="#30B9D9"/>
</g>
<mask id="mask1_498_2203" style="mask-type:luminance" maskUnits="userSpaceOnUse" x="16" y="30" width="30" height="3">
<path d="M17.1503 30.2961C16.5259 30.2961 16.0135 30.811 16.0135 31.4403C16.0135 32.0695 16.5259 32.5844 17.1503 32.5844H44.4396C45.0657 32.5844 45.5773 32.0695 45.5773 31.4403C45.5773 30.811 45.0657 30.2961 44.4396 30.2961H17.1503Z" fill="white"/>
</mask>
<g mask="url(#mask1_498_2203)">
<path fill-rule="evenodd" clip-rule="evenodd" d="M11.743 36.8824H49.8469V25.9983H11.743V36.8824Z" fill="#30B9D9"/>
</g>
<mask id="mask2_498_2203" style="mask-type:luminance" maskUnits="userSpaceOnUse" x="20" y="34" width="22" height="4">
<path d="M21.6984 34.8735C21.0723 34.8735 20.5607 35.3884 20.5607 36.0185C20.5607 36.6469 21.0723 37.1618 21.6984 37.1618H39.8907C40.5168 37.1618 41.0284 36.6469 41.0284 36.0185C41.0284 35.3884 40.5168 34.8735 39.8907 34.8735H21.6984Z" fill="white"/>
</mask>
<g mask="url(#mask2_498_2203)">
<path fill-rule="evenodd" clip-rule="evenodd" d="M16.2911 41.4597H45.2989V30.5747H16.2911V41.4597Z" fill="#30B9D9"/>
</g>
<path fill-rule="evenodd" clip-rule="evenodd" d="M30.8318 15.739C28.1696 15.739 26.0779 13.6339 26.0779 10.9554C26.0779 8.27604 28.1696 6.1709 30.8318 6.1709C33.494 6.1709 35.5849 8.27604 35.5849 10.9554C35.5849 13.6339 33.494 15.739 30.8318 15.739ZM40.3388 8.94566L38.1523 8.75483L37.5818 7.31932L39.0081 5.59669C39.3882 5.21418 39.2925 4.54455 38.9124 4.16203L37.5818 2.82193C37.2017 2.43941 36.5355 2.43941 36.1554 2.72652L34.4438 4.25745C33.9689 3.97035 33.494 3.77866 33.0183 3.68324L32.8278 1.38727C32.733 0.813066 32.2573 0.429688 31.7824 0.429688H29.8812C29.3107 0.429688 28.9297 0.813066 28.8349 1.38727L28.6445 3.58783C28.1696 3.77866 27.6947 3.97035 27.219 4.25745L25.5082 2.72652C25.1273 2.43941 24.4619 2.43941 24.0819 2.82193L22.7512 4.16203C22.3702 4.54455 22.3702 5.21418 22.6555 5.59669L24.1767 7.31932C23.8914 7.79725 23.7009 8.27604 23.6061 8.75483L21.3248 8.94566C20.7543 9.04108 20.3742 9.51987 20.3742 9.9978V11.9121C20.3742 12.4855 20.7543 12.8688 21.3248 12.9643L23.5113 13.1559L24.0819 14.5915L22.6555 16.3132C22.2754 16.6957 22.3702 17.3662 22.7512 17.7487L24.0819 19.088C24.4619 19.4705 25.1273 19.4705 25.5082 19.1834L27.219 17.6533C27.6947 17.9396 28.1696 18.1313 28.6445 18.2267L28.8349 20.5226C28.9297 21.0969 29.3107 21.4802 29.8812 21.4802H31.7824C32.353 21.4802 32.733 21.0969 32.8278 20.5226L33.0183 18.3221C33.494 18.1313 33.9689 17.9396 34.4438 17.7487L36.1554 19.1834C36.5355 19.5668 37.2017 19.4705 37.5818 19.088L38.9124 17.7487C39.2925 17.3662 39.2925 16.6957 39.0081 16.3132L37.487 14.5915C37.7714 14.1127 37.9618 13.6339 38.0566 13.1559L40.244 12.9643C40.8145 12.8688 41.1946 12.4855 41.1946 11.9121V9.9978C41.2894 9.42446 40.9093 9.04108 40.3388 8.94566Z" fill="#FF8C27"/>
</g>
<defs>
<clipPath id="clip0_498_2203">
<rect width="62" height="42" fill="white"/>
</clipPath>
</defs>
</svg>
