<svg width="18" height="18" viewBox="0 0 18 18" fill="none" xmlns="http://www.w3.org/2000/svg">
<path d="M6.14645 9.00008C6.14645 7.42391 7.42385 6.14582 9.00002 6.14582C10.5762 6.14582 11.8543 7.42391 11.8543 9.00008C11.8543 10.5763 10.5762 11.8543 9.00002 11.8543C7.42385 11.8543 6.14645 10.5763 6.14645 9.00008ZM4.60348 9.00008C4.60348 11.4283 6.57179 13.3966 9.00002 13.3966C11.4283 13.3966 13.3966 11.4283 13.3966 9.00008C13.3966 6.57185 11.4283 4.60354 9.00002 4.60354C6.57179 4.60354 4.60348 6.57185 4.60348 9.00008ZM12.5431 4.42925C12.5431 4.99637 13.003 5.45698 13.5708 5.45698C14.138 5.45698 14.5986 4.99637 14.5986 4.42925C14.5986 3.86213 14.1387 3.40221 13.5708 3.40221C13.003 3.40221 12.5431 3.86213 12.5431 4.42925ZM5.5406 15.9694C4.70583 15.9314 4.25214 15.7924 3.9506 15.6748C3.55085 15.5192 3.26591 15.3338 2.96575 15.0343C2.66628 14.7349 2.48024 14.4499 2.32532 14.0502C2.20775 13.7487 2.06874 13.295 2.0307 12.4602C1.9892 11.5576 1.9809 11.2865 1.9809 9.00008C1.9809 6.71363 1.98989 6.44321 2.0307 5.53997C2.06874 4.7052 2.20844 4.2522 2.32532 3.94997C2.48093 3.55022 2.66628 3.26528 2.96575 2.96512C3.26522 2.66565 3.55016 2.47961 3.9506 2.32469C4.25214 2.20712 4.70583 2.06811 5.5406 2.03007C6.44315 1.98857 6.71426 1.98027 9.00002 1.98027C11.2865 1.98027 11.5569 1.98926 12.4601 2.03007C13.2949 2.06811 13.7479 2.20781 14.0501 2.32469C14.4499 2.47961 14.7348 2.66565 15.035 2.96512C15.3344 3.26459 15.5198 3.55022 15.6754 3.94997C15.793 4.25151 15.932 4.7052 15.97 5.53997C16.0115 6.44321 16.0198 6.71363 16.0198 9.00008C16.0198 11.2858 16.0115 11.557 15.97 12.4602C15.932 13.295 15.7923 13.7487 15.6754 14.0502C15.5198 14.4499 15.3344 14.7349 15.035 15.0343C14.7355 15.3338 14.4499 15.5192 14.0501 15.6748C13.7486 15.7924 13.2949 15.9314 12.4601 15.9694C11.5576 16.0109 11.2865 16.0192 9.00002 16.0192C6.71426 16.0192 6.44315 16.0109 5.5406 15.9694ZM5.47006 0.489859C4.55852 0.531355 3.93607 0.675901 3.39178 0.887533C2.82881 1.10608 2.3516 1.39932 1.87509 1.87515C1.39926 2.35097 1.10602 2.82818 0.887472 3.39184C0.67584 3.93614 0.531294 4.55858 0.489798 5.47012C0.44761 6.38304 0.437927 6.6749 0.437927 9.00008C0.437927 11.3253 0.44761 11.6171 0.489798 12.53C0.531294 13.4416 0.67584 14.064 0.887472 14.6083C1.10602 15.1713 1.39857 15.6492 1.87509 16.125C2.35091 16.6008 2.82812 16.8934 3.39178 17.1126C3.93677 17.3243 4.55852 17.4688 5.47006 17.5103C6.38367 17.5518 6.67484 17.5622 9.00002 17.5622C11.3259 17.5622 11.6171 17.5525 12.53 17.5103C13.4415 17.4688 14.064 17.3243 14.6083 17.1126C15.1712 16.8934 15.6484 16.6008 16.125 16.125C16.6008 15.6492 16.8933 15.1713 17.1126 14.6083C17.3242 14.064 17.4694 13.4416 17.5102 12.53C17.5517 11.6164 17.5614 11.3253 17.5614 9.00008C17.5614 6.6749 17.5517 6.38304 17.5102 5.47012C17.4687 4.55858 17.3242 3.93614 17.1126 3.39184C16.8933 2.82887 16.6008 2.35166 16.125 1.87515C15.6491 1.39932 15.1712 1.10608 14.609 0.887533C14.064 0.675901 13.4415 0.530664 12.5307 0.489859C11.6178 0.448362 11.3259 0.437988 9.00071 0.437988C6.67484 0.437988 6.38367 0.447671 5.47006 0.489859Z" fill="white"/>
</svg>
