<svg width="18" height="18" viewBox="0 0 18 18" fill="none" xmlns="http://www.w3.org/2000/svg">
<path d="M0.437927 2.42716C0.437927 1.85058 0.630773 1.3749 1.01645 1.00014C1.40212 0.625368 1.90352 0.437988 2.5206 0.437988C3.12667 0.437988 3.61703 0.622479 3.99169 0.991496C4.37737 1.37203 4.57021 1.86787 4.57021 2.47905C4.57021 3.03256 4.38289 3.4938 4.00822 3.86282C3.62255 4.24336 3.11565 4.43362 2.48754 4.43362H2.47101C1.86494 4.43362 1.37458 4.24336 0.999918 3.86282C0.625252 3.48228 0.437927 3.00372 0.437927 2.42716ZM0.652806 17.5621V6.00766H4.32227V17.5621H0.652806ZM6.35536 17.5621H10.0248V11.1103C10.0248 10.7067 10.0689 10.3954 10.1571 10.1763C10.3113 9.7842 10.5455 9.45266 10.8595 9.18168C11.1736 8.91069 11.5675 8.7752 12.0414 8.7752C13.2756 8.7752 13.8926 9.64582 13.8926 11.3871V17.5621H17.5621V10.9373C17.5621 9.23069 17.1764 7.93629 16.4051 7.05414C15.6337 6.17199 14.6144 5.73091 13.3472 5.73091C11.9257 5.73091 10.8182 6.3709 10.0248 7.65089V7.68548H10.0083L10.0248 7.65089V6.00766H6.35536C6.37739 6.37666 6.38842 7.52403 6.38842 9.44979C6.38842 11.3755 6.37739 14.0796 6.35536 17.5621Z" fill="white"/>
</svg>
