<svg width="187" height="48" viewBox="0 0 187 48" fill="none" xmlns="http://www.w3.org/2000/svg">
<path d="M10.0265 39.3335C8.29673 39.3335 6.73298 39.1675 5.33522 38.8355C3.95494 38.5035 2.56591 38.0231 1.16815 37.3941L1.74473 31.838C3.09007 32.6242 4.40921 33.2619 5.70213 33.7512C7.01253 34.2229 8.38409 34.4588 9.81679 34.4588C11.1097 34.4588 12.0969 34.2491 12.7783 33.8298C13.4597 33.4105 13.8004 32.7465 13.8004 31.838C13.8004 31.1566 13.6169 30.5975 13.25 30.1607C12.9006 29.7239 12.3677 29.3307 11.6513 28.9813C10.935 28.6319 10.0439 28.2562 8.97813 27.8544C7.37071 27.2603 5.99916 26.6139 4.86348 25.915C3.74527 25.2161 2.88914 24.3774 2.2951 23.399C1.71852 22.4031 1.43023 21.1801 1.43023 19.7299C1.43023 18.2273 1.82335 16.8994 2.60959 15.7463C3.39583 14.5931 4.51404 13.6933 5.96421 13.0468C7.41439 12.4004 9.13538 12.0771 11.1272 12.0771C12.787 12.0771 14.2721 12.2606 15.5825 12.6275C16.9104 12.9944 18.1335 13.4924 19.2517 14.1214L18.6751 19.6775C17.5045 18.8563 16.3251 18.1836 15.137 17.6595C13.9489 17.1178 12.6473 16.847 11.232 16.847C10.1138 16.847 9.24895 17.0741 8.63743 17.5284C8.02591 17.9827 7.72015 18.6291 7.72015 19.4678C7.72015 20.4812 8.14821 21.2412 9.00434 21.7479C9.86047 22.2546 11.232 22.8748 13.119 23.6087C14.342 24.0804 15.3991 24.5696 16.2902 25.0763C17.1987 25.583 17.95 26.1421 18.5441 26.7536C19.1381 27.3651 19.5749 28.064 19.8544 28.8503C20.1515 29.619 20.3 30.5101 20.3 31.5235C20.3 33.1833 19.8981 34.5986 19.0944 35.7692C18.3082 36.9223 17.1463 37.8047 15.6088 38.4162C14.0887 39.0277 12.2279 39.3335 10.0265 39.3335Z" fill="white"/>
<path fill-rule="evenodd" clip-rule="evenodd" d="M5.08234 39.8982L5.07932 39.8974C3.62786 39.5484 2.17443 39.0448 0.719487 38.3901L0.658873 38.3628C0.265581 38.1858 0.0300607 37.7766 0.074577 37.3477L0.752792 30.8121C0.790301 30.4507 1.18866 30.2487 1.5024 30.4321L2.29517 30.8954C3.59154 31.653 4.85301 32.2621 6.07976 32.7269C7.26561 33.1527 8.509 33.367 9.81624 33.367C11.0195 33.367 11.7718 33.1669 12.2054 32.9C12.5151 32.7094 12.7079 32.4285 12.7079 31.8382C12.7079 31.3615 12.5843 31.0667 12.4133 30.8632L12.4049 30.8532L12.3968 30.843C12.1818 30.5743 11.8005 30.2695 11.172 29.963C10.4967 29.6335 9.64029 29.2716 8.59546 28.8775C6.94003 28.2655 5.5012 27.5902 4.29062 26.8452L4.28416 26.8412C3.04335 26.0657 2.05628 25.1109 1.36112 23.9659L1.35521 23.9562L1.3495 23.9463C0.654663 22.7462 0.337685 21.3231 0.337685 19.7301C0.337685 18.0257 0.787346 16.4798 1.7068 15.1313C2.62225 13.7887 3.90989 12.767 5.51905 12.0497C7.13996 11.3271 9.0194 10.9854 11.1266 10.9854C12.8641 10.9854 14.4503 11.1771 15.8742 11.5756C17.2806 11.9643 18.5861 12.4946 19.7865 13.1698L19.8391 13.1994C20.1865 13.3948 20.3847 13.7778 20.3435 14.1742L19.6567 20.7925C19.6173 21.172 19.1846 21.3693 18.8722 21.1502L18.0474 20.5716C16.9295 19.7874 15.8122 19.1513 14.6957 18.6587L14.6896 18.656L14.6835 18.6533C13.6492 18.1818 12.5037 17.9392 11.2315 17.9392C10.2428 17.9392 9.64154 18.1426 9.28807 18.4052C8.98471 18.6306 8.8116 18.9345 8.8116 19.468C8.8116 20.1043 9.04352 20.5027 9.55997 20.8084C10.3355 21.2673 11.6375 21.8612 13.5126 22.5905C14.771 23.0759 15.8778 23.5865 16.8258 24.1252C17.8056 24.6721 18.6456 25.2917 19.3268 25.9929C20.0242 26.7109 20.5444 27.5391 20.8778 28.4707C21.2294 29.3867 21.3914 30.4112 21.3914 31.5237C21.3914 33.3653 20.9431 35.0045 19.9952 36.3859C19.0652 37.7491 17.7136 38.7539 16.0134 39.4304C14.3281 40.108 12.3208 40.4257 10.0259 40.4257C8.22783 40.4257 6.57752 40.2533 5.08234 39.8982ZM15.6082 38.4164C17.1457 37.8049 18.3076 36.9225 19.0939 35.7694C19.8976 34.5988 20.2994 33.1835 20.2994 31.5237C20.2994 30.5103 20.1509 29.6192 19.8539 28.8505C19.5744 28.0642 19.1376 27.3653 18.5435 26.7538C17.9495 26.1423 17.1982 25.5832 16.2896 25.0765C15.3985 24.5698 14.3415 24.0806 13.1184 23.6089C11.2315 22.875 9.85992 22.2548 9.00379 21.7481C8.14767 21.2414 7.7196 20.4814 7.7196 19.468C7.7196 18.6294 8.02536 17.9829 8.63688 17.5286C9.2484 17.0743 10.1133 16.8472 11.2315 16.8472C12.6467 16.8472 13.9484 17.118 15.1365 17.6597C15.9778 18.0308 16.8148 18.4765 17.6474 18.9966C17.9905 19.211 18.3329 19.438 18.6745 19.6777L19.2511 14.1216C18.1329 13.4926 16.9099 12.9946 15.582 12.6277C14.2716 12.2608 12.7865 12.0774 11.1266 12.0774C9.13483 12.0774 7.41384 12.4006 5.96367 13.047C4.51349 13.6935 3.39528 14.5933 2.60904 15.7465C1.8228 16.8996 1.42968 18.2275 1.42968 19.7301C1.42968 21.1803 1.71797 22.4033 2.29455 23.3992C2.8886 24.3776 3.74472 25.2163 4.86293 25.9152C5.99861 26.6141 7.37016 27.2605 8.97759 27.8546C10.0434 28.2564 10.9344 28.6321 11.6508 28.9815C12.3672 29.3309 12.9 29.7241 13.2495 30.1609C13.6164 30.5977 13.7999 31.1568 13.7999 31.8382C13.7999 32.7467 13.4592 33.4107 12.7777 33.83C12.0963 34.2493 11.1092 34.459 9.81624 34.459C8.38354 34.459 7.01199 34.2231 5.70159 33.7514C4.74277 33.3886 3.76953 32.9441 2.78188 32.4179C2.43773 32.2346 2.09183 32.0413 1.74418 31.8382L1.1676 37.3943C2.56536 38.0233 3.95439 38.5037 5.33468 38.8357C6.73244 39.1677 8.29618 39.3337 10.0259 39.3337C12.2274 39.3337 14.0881 39.0279 15.6082 38.4164Z" fill="white"/>
<path fill-rule="evenodd" clip-rule="evenodd" d="M156.86 39.4907C159.667 39.4907 162.276 38.6301 164.45 37.1533V38.9061H172.624V12.0494H164.45V13.8037C162.276 12.3269 159.667 11.4663 156.86 11.4663C149.283 11.4663 143.14 17.7398 143.14 25.4785C143.14 33.2172 149.283 39.4907 156.86 39.4907ZM157.699 32.9722C161.979 32.9722 165.449 29.5024 165.449 25.2222C165.449 20.942 161.979 17.4722 157.699 17.4722C153.419 17.4722 149.949 20.942 149.949 25.2222C149.949 29.5024 153.419 32.9722 157.699 32.9722Z" fill="white"/>
<path d="M164.45 37.1533H164.95V36.2091L164.169 36.7397L164.45 37.1533ZM164.45 38.9061H163.95V39.4061H164.45V38.9061ZM172.624 38.9061V39.4061H173.124V38.9061H172.624ZM172.624 12.0494H173.124V11.5494H172.624V12.0494ZM164.45 12.0494V11.5494H163.95V12.0494H164.45ZM164.45 13.8037L164.169 14.2173L164.95 14.7479V13.8037H164.45ZM164.169 36.7397C162.075 38.1624 159.563 38.9907 156.86 38.9907V39.9907C159.771 39.9907 162.478 39.0979 164.731 37.5669L164.169 36.7397ZM164.95 38.9061V37.1533H163.95V38.9061H164.95ZM172.624 38.4061H164.45V39.4061H172.624V38.4061ZM172.124 12.0494V38.9061H173.124V12.0494H172.124ZM164.45 12.5494H172.624V11.5494H164.45V12.5494ZM164.95 13.8037V12.0494H163.95V13.8037H164.95ZM156.86 11.9663C159.563 11.9663 162.075 12.7946 164.169 14.2173L164.731 13.3901C162.478 11.8591 159.771 10.9663 156.86 10.9663V11.9663ZM143.64 25.4785C143.64 18.0059 149.569 11.9663 156.86 11.9663V10.9663C148.997 10.9663 142.64 17.4736 142.64 25.4785H143.64ZM156.86 38.9907C149.569 38.9907 143.64 32.9511 143.64 25.4785H142.64C142.64 33.4834 148.997 39.9907 156.86 39.9907V38.9907ZM164.949 25.2222C164.949 29.2262 161.703 32.4722 157.699 32.4722V33.4722C162.255 33.4722 165.949 29.7785 165.949 25.2222H164.949ZM157.699 17.9722C161.703 17.9722 164.949 21.2181 164.949 25.2222H165.949C165.949 20.6658 162.255 16.9722 157.699 16.9722V17.9722ZM150.449 25.2222C150.449 21.2181 153.695 17.9722 157.699 17.9722V16.9722C153.143 16.9722 149.449 20.6658 149.449 25.2222H150.449ZM157.699 32.4722C153.695 32.4722 150.449 29.2262 150.449 25.2222H149.449C149.449 29.7785 153.143 33.4722 157.699 33.4722V32.4722Z" fill="white"/>
<path d="M185.724 39.0499V11.5839H176.918V39.0499H185.724ZM176.446 4.56019C176.446 7.33824 178.386 9.12038 181.321 9.12038C184.256 9.12038 186.196 7.33824 186.196 4.56019C186.196 1.78215 184.256 0 181.321 0C178.386 0 176.446 1.78215 176.446 4.56019Z" fill="white"/>
<path fill-rule="evenodd" clip-rule="evenodd" d="M117.059 26.1494V39.3582H108.253V5.46255L115.615 1.811C116.28 1.48128 117.059 1.96485 117.059 2.70684V24.6293L124.083 11.8922H133.885L126.022 25.3631L134.147 39.3582H124.345L117.059 26.1494ZM24.5277 46.9072C24.5277 47.6685 25.287 48.1961 26.0005 47.9307L33.3336 44.6566V37.1043C34.4867 38.4671 37.16 39.9872 40.4622 39.9872C48.2197 39.9872 52.0985 34.1166 52.0985 27.8791V23.3713C52.0985 17.1338 48.2197 11.2633 40.4622 11.2633C36.6882 11.2633 33.7529 13.2551 32.9143 14.7751V11.8922H24.5277V46.9072ZM104.522 11.6826H104.103C100.172 11.6826 97.446 12.6261 96.6073 16.7145V11.8922H88.2732V39.3582H97.0791V26.7784C97.0791 22.0085 99.2805 20.3312 103.369 20.3312H104.522V11.6826ZM38.3088 32.2167C41.9274 32.2167 44.8608 29.2832 44.8608 25.6647C44.8608 22.0461 41.9274 19.1127 38.3088 19.1127C34.6903 19.1127 31.7568 22.0461 31.7568 25.6647C31.7568 29.2832 34.6903 32.2167 38.3088 32.2167Z" fill="white"/>
<path fill-rule="evenodd" clip-rule="evenodd" d="M67.8953 12.0321L61.249 28.1027C60.9768 28.7611 61.4607 29.4849 62.1731 29.4849H68.6998V39.5134C61.2627 39.5134 55.2337 33.3561 55.2337 25.7607C55.2337 18.4411 60.8327 12.4571 67.8953 12.0321ZM70.4189 12.119V22.322H77.2137C77.931 22.322 78.415 23.0549 78.1335 23.7146L71.5189 39.2116C73.1996 38.846 74.7642 38.1601 76.1486 37.2196V38.94H84.171V12.5806H76.1486V14.3017C74.4664 13.1589 72.5181 12.3922 70.4189 12.119Z" fill="#FF8C27"/>
</svg>
