<svg width="76" height="76" viewBox="0 0 76 76" fill="none" xmlns="http://www.w3.org/2000/svg">
<path d="M44.086 15.7146C44.086 24.3936 36.978 31.4293 28.2096 31.4293C19.4414 31.4293 12.3332 24.3936 12.3332 15.7146C12.3332 7.03569 19.4414 0 28.2096 0C36.978 0 44.086 7.03569 44.086 15.7146Z" fill="#30B9D9"/>
<path d="M56.3726 57.8961H0C0.772408 43.1503 13.0965 31.4292 28.1863 31.4292C43.2761 31.4292 55.6002 43.1503 56.3726 57.8961Z" fill="#30B9D9"/>
<path d="M55.255 73.8833C65.5431 73.8833 73.8833 65.5432 73.8833 55.255C73.8833 44.9669 65.5431 36.6267 55.255 36.6267C44.9669 36.6267 36.6267 44.9669 36.6267 55.255C36.6267 65.5432 44.9669 73.8833 55.255 73.8833Z" fill="#FF8C27" stroke="white" stroke-width="1.04833"/>
<path fill-rule="evenodd" clip-rule="evenodd" d="M64.8148 49.854C65.1046 50.1892 65.0619 50.691 64.7193 50.9746L52.9 60.7604C52.7355 60.8966 52.5225 60.9633 52.3076 60.9458C52.0928 60.9283 51.894 60.8281 51.7549 60.6671L47.3226 55.5411C47.0327 55.206 47.0754 54.7042 47.4181 54.4206C47.7607 54.1369 48.2733 54.1788 48.5633 54.5141L52.4705 59.0329L63.6695 49.7606C64.0122 49.477 64.5249 49.5189 64.8148 49.854Z" fill="white"/>
</svg>
