<svg width="80" height="76" viewBox="0 0 80 76" fill="none" xmlns="http://www.w3.org/2000/svg">
<g clip-path="url(#clip0_498_2141)">
<path d="M67.0166 0H10.0166V76H67.0166V0Z" fill="#30B9D9"/>
<path fill-rule="evenodd" clip-rule="evenodd" d="M35.028 27.1259C35.028 25.0943 36.6749 23.4474 38.7065 23.4474C40.738 23.4474 42.3849 25.0943 42.3849 27.1259V32.8171H35.028V27.1259ZM32.8606 34.9847V35.0628H35.028V34.9847H42.3849V35.0628H44.5523V34.9847H49.7181V51.7743H26.4874V34.9847H32.8606ZM32.8606 32.8171V27.1259C32.8606 23.8973 35.4779 21.28 38.7065 21.28C41.935 21.28 44.5523 23.8973 44.5523 27.1259V32.8171H50.8019H51.8855V33.9009V52.8579V53.9416H50.8019H25.4038H24.32V52.8579V33.9009V32.8171H25.4038H32.8606ZM38.335 37.9909C37.1646 37.9909 36.2158 38.9397 36.2158 40.1101V45.6587C36.2158 46.8291 37.1646 47.7779 38.335 47.7779C39.5054 47.7779 40.4542 46.8291 40.4542 45.6587V40.1101C40.4542 38.9397 39.5054 37.9909 38.335 37.9909Z" fill="white"/>
<path d="M9.1808 25.4259V16.2451H4.5904C2.05519 16.2451 0 18.3003 0 20.8355C0 23.3707 2.05519 25.4259 4.5904 25.4259H9.1808Z" fill="#FF8C27" stroke="white"/>
<path d="M8.34618 19.5831C3.67232 19.5831 0.834618 20.1396 0 20.4178V13.7409C0 11.0701 3.33847 10.4024 5.0077 10.4024H18.3616V4.56006L31.7154 15.4101L18.3616 24.5909V19.5831H8.34618Z" fill="#FF8C27" stroke="white"/>
<path d="M68.4376 72.5458V63.365H72.1933C74.7285 63.365 76.7837 65.4202 76.7837 67.9554C76.7837 70.4906 74.7285 72.5458 72.1933 72.5458H68.4376Z" fill="#FF8C27" stroke="white"/>
<path d="M68.4375 66.703C73.1114 66.703 75.9491 67.2595 76.7837 67.5376V60.8607C76.7837 58.1899 73.4453 57.5222 71.7761 57.5222H58.4221V51.6799L45.0683 62.53L58.4221 71.7108V66.703H68.4375Z" fill="#FF8C27" stroke="white"/>
</g>
<defs>
<clipPath id="clip0_498_2141">
<rect width="79.04" height="76" fill="white"/>
</clipPath>
</defs>
</svg>
