<svg width="62" height="76" viewBox="0 0 62 76" fill="none" xmlns="http://www.w3.org/2000/svg">
<path d="M49.5974 1.49023H2.86682C2.10652 1.49023 1.49017 2.10658 1.49017 2.86688V68.8411C1.49017 69.6014 2.10652 70.2178 2.86682 70.2178H49.5974C50.3577 70.2178 50.9741 69.6014 50.9741 68.8411V2.86688C50.9741 2.10658 50.3577 1.49023 49.5974 1.49023Z" fill="#30B9D9" stroke="#30B9D9" stroke-width="1.3857"/>
<path d="M10.1985 10.387H43.1878V8.32202H10.1985V10.387ZM10.1985 19.6541H43.1878V17.5891H10.1985V19.6541ZM10.1985 28.9213H43.1878V26.8563H10.1985V28.9213Z" fill="white"/>
<path d="M59.0647 52.4253C58.7352 53.5704 58.395 54.7551 58.395 55.9115C58.395 57.0679 58.7352 58.2529 59.066 59.3976L59.0675 59.4032C59.5113 60.9497 59.9303 62.4105 59.4567 63.5523C58.9562 64.7594 57.595 65.5049 56.1533 66.2947L56.1454 66.299C55.1298 66.8543 54.0788 67.4294 53.3037 68.205C52.5284 68.9804 51.9533 70.0308 51.3984 71.0461C50.6071 72.4923 49.86 73.8575 48.6507 74.3583C47.5118 74.8324 46.0565 74.415 44.5168 73.9736L44.4961 73.9676C43.3513 73.6378 42.1663 73.2979 41.0099 73.2979C39.8535 73.2979 38.6688 73.6378 37.5237 73.9676L37.4984 73.9749C35.9599 74.4158 34.5085 74.8318 33.3694 74.3583C32.1617 73.8576 31.4157 72.4953 30.6255 71.0523L30.6223 71.0467C30.0674 70.0314 29.4923 68.9804 28.7164 68.205C27.941 67.43 26.8909 66.8549 25.8753 66.2996L25.8749 66.2995C24.4288 65.5082 23.0641 64.7615 22.5631 63.5523C22.0893 62.411 22.5082 60.9507 22.9517 59.4051L22.9538 59.3976C23.2836 58.2529 23.6235 57.0679 23.6235 55.9115C23.6235 54.7551 23.2836 53.571 22.9526 52.4253L22.9516 52.4216C22.5076 50.8745 22.0883 49.4129 22.5617 48.2707C23.0624 47.0634 24.4239 46.3177 25.8664 45.5278L25.8734 45.5239C26.889 44.9687 27.9397 44.3936 28.715 43.618C29.4904 42.8426 30.0652 41.7925 30.6204 40.7769L30.6212 40.7757C31.4123 39.3299 32.1589 37.9654 33.368 37.4646C34.5083 36.99 35.9668 37.4088 37.5091 37.8516L37.5224 37.8554C38.6675 38.1853 39.8522 38.5251 41.0086 38.5251C42.1651 38.5251 43.3501 38.1853 44.4949 37.8554L44.5032 37.853C46.0486 37.4097 47.5078 36.9911 48.6495 37.4646C49.8572 37.9655 50.6032 39.3277 51.3934 40.7706L51.3966 40.7763C51.9514 41.7919 52.5264 42.8426 53.3025 43.618C54.0774 44.393 55.128 44.9681 56.1431 45.5233L56.1443 45.5239C57.5903 46.3151 58.9548 47.0618 59.4556 48.2707C59.9293 49.4115 59.5107 50.871 59.0674 52.4162L59.0647 52.4253Z" fill="#FF8C27" stroke="white" stroke-width="0.856703"/>
<path d="M41.5927 50.9506C41.7751 50.6037 42.2719 50.6037 42.4543 50.9506L44.0509 53.987C44.1227 54.1235 44.2551 54.218 44.4075 54.2416L47.8521 54.7733C48.2491 54.8345 48.4053 55.3235 48.1171 55.6035L45.6706 57.9811C45.5566 58.0918 45.5039 58.2512 45.5293 58.4082L46.071 61.7416C46.1345 62.1323 45.7299 62.4314 45.3751 62.2561L42.239 60.7077C42.1032 60.6406 41.9438 60.6406 41.808 60.7077L38.6721 62.2561C38.3171 62.4314 37.9125 62.1323 37.976 61.7416L38.5177 58.4082C38.5432 58.2512 38.4904 58.0918 38.3764 57.9811L35.93 55.6035C35.6419 55.3235 35.7979 54.8345 36.1951 54.7733L39.6395 54.2416C39.7919 54.218 39.9243 54.1235 39.9961 53.987L41.5927 50.9506Z" stroke="white" stroke-width="0.979982"/>
<path d="M50.2004 61.7322L50.3019 61.7995L50.3691 61.6982C51.483 60.0204 52.0716 58.0681 52.0722 56.0535C52.0722 50.4162 47.4857 45.8298 41.8483 45.8298C39.834 45.8298 37.8814 46.4185 36.2039 47.5324L36.1025 47.5996L36.1697 47.7011L36.7013 48.5025L36.7685 48.6038L36.87 48.5366C38.3498 47.5546 40.0714 47.0353 41.8478 47.0353C46.8206 47.0353 50.8662 51.0807 50.8662 56.0535C50.8662 57.8301 50.3472 59.5514 49.3648 61.0319L49.2976 61.1334L49.399 61.2008L50.2004 61.7322Z" fill="white" stroke="white" stroke-width="0.16333"/>
<path d="M32.7965 51.0743L32.695 51.0071L32.6278 51.1084C31.5139 52.7861 30.9253 54.7384 30.9248 56.753C30.9248 62.3904 35.5112 66.9766 41.1486 66.9766C43.1629 66.9766 45.1155 66.388 46.793 65.2741L46.8944 65.2069L46.8272 65.1055L46.2956 64.3041L46.2284 64.2026L46.1269 64.27C44.6472 65.2519 42.9255 65.7712 41.1491 65.7712C36.1763 65.7712 32.1307 61.7258 32.1307 56.753C32.1307 54.9764 32.6499 53.255 33.6321 51.7745L33.6993 51.673L33.5979 51.6058L32.7965 51.0743Z" fill="white" stroke="white" stroke-width="0.16333"/>
</svg>
