<svg width="24" height="20" viewBox="0 0 24 20" fill="none" xmlns="http://www.w3.org/2000/svg">
<path d="M23.4771 2.71737C22.6321 3.08186 21.7126 3.34419 20.7655 3.44636C21.7488 2.86216 22.4852 1.93922 22.8365 0.850701C21.9137 1.39963 20.9029 1.78454 19.8487 1.98837C19.4081 1.51736 18.8753 1.14213 18.2833 0.886067C17.6914 0.630002 17.053 0.498587 16.4081 0.500011C13.7986 0.500011 11.7 2.6152 11.7 5.21086C11.7 5.57535 11.7442 5.93985 11.816 6.29054C7.90867 6.0862 4.42386 4.21954 2.1071 1.36155C1.68496 2.08258 1.46374 2.90355 1.46647 3.73906C1.46647 5.37378 2.29763 6.81519 3.56509 7.66293C2.81816 7.63351 2.08872 7.42821 1.43609 7.06372V7.1217C1.43609 9.41085 3.05424 11.3079 5.21084 11.7442C4.80592 11.8494 4.38937 11.9032 3.971 11.9043C3.66449 11.9043 3.37455 11.874 3.08185 11.8325C3.6783 13.6992 5.41518 15.055 7.48343 15.0992C5.86528 16.3667 3.83846 17.1122 1.63767 17.1122C1.2428 17.1122 0.878303 17.0984 0.5 17.0542C2.58757 18.3935 5.06449 19.1667 7.73195 19.1667C16.3915 19.1667 21.13 11.9927 21.13 5.76589C21.13 5.56155 21.13 5.35721 21.1162 5.15287C22.0329 4.48186 22.8365 3.6507 23.4771 2.71737Z" fill="white"/>
</svg>
