<svg width="24" height="24" viewBox="0 0 24 24" fill="none" xmlns="http://www.w3.org/2000/svg">
<path fill-rule="evenodd" clip-rule="evenodd" d="M4.02304 2C13.9749 2 22.0743 10.0758 22.1165 20.0176V20.0182H22.118V21.0701H22.1062C22.0798 21.3033 21.9755 21.5209 21.81 21.6874C21.6445 21.8539 21.4277 21.9596 21.1946 21.9875V21.9999H19.3243V21.9978C19.0713 21.9925 18.8288 21.8955 18.642 21.7247C18.4552 21.554 18.3368 21.3213 18.3088 21.0698H18.297V20.0179H18.3076C18.2654 12.1756 11.8747 5.80861 4.02273 5.80861C4.01528 5.80861 4.00783 5.80807 4.00037 5.80752C3.99416 5.80707 3.98795 5.80662 3.98174 5.80648V5.82106H2.92983V5.80922C2.69654 5.78293 2.47898 5.67858 2.31246 5.5131C2.14593 5.34762 2.04021 5.13072 2.01245 4.8976H2V3.02731H2.00213C2.00742 2.77431 2.10445 2.53185 2.27516 2.34505C2.44587 2.15825 2.67864 2.03984 2.93014 2.01184V2H3.98204V2.00213C3.98822 2.00199 3.99434 2.00154 4.00048 2.00109C4.00792 2.00055 4.01539 2 4.02304 2ZM4.02304 9.20619C4.01539 9.20619 4.00792 9.20674 4.00048 9.20728L4.00047 9.20728C3.99433 9.20773 3.98822 9.20818 3.98204 9.20832V9.20619H2.93014V9.21804C2.67864 9.24603 2.44587 9.36445 2.27516 9.55125C2.10445 9.73805 2.00742 9.9805 2.00213 10.2335H2V12.1038H2.01245C2.04026 12.3369 2.146 12.5538 2.31252 12.7192C2.47903 12.8847 2.69656 12.9891 2.92983 13.0154V13.0273H3.98174V13.0127C3.98795 13.0128 3.99416 13.0133 4.00037 13.0137C4.00782 13.0143 4.01528 13.0148 4.02273 13.0148C7.90119 13.0148 11.0596 16.149 11.1015 20.0177H11.0915V21.0696H11.1034C11.1314 21.3211 11.2498 21.5539 11.4366 21.7246C11.6234 21.8953 11.8658 21.9923 12.1188 21.9976V21.9997H13.9888V21.9873C14.2219 21.9595 14.4388 21.8537 14.6043 21.6872C14.7697 21.5207 14.8741 21.3032 14.9004 21.0699H14.9123V20.018H14.9105C14.8689 14.0488 10.0014 9.20619 4.02304 9.20619ZM4.84948 16.5393C4.49924 16.5393 4.15244 16.6083 3.82888 16.7424C3.50532 16.8764 3.21135 17.0729 2.96375 17.3207C2.71616 17.5684 2.51979 17.8624 2.38587 18.186C2.25195 18.5097 2.18311 18.8565 2.18327 19.2067C2.18327 19.5569 2.25225 19.9037 2.38627 20.2273C2.52029 20.5508 2.71672 20.8448 2.96436 21.0925C3.212 21.3401 3.50599 21.5365 3.82954 21.6705C4.15309 21.8046 4.49987 21.8735 4.85008 21.8735C5.2003 21.8735 5.54708 21.8046 5.87063 21.6705C6.19418 21.5365 6.48817 21.3401 6.73581 21.0925C6.98344 20.8448 7.17988 20.5508 7.3139 20.2273C7.44792 19.9037 7.5169 19.5569 7.5169 19.2067C7.51706 18.8564 7.44817 18.5095 7.31418 18.1858C7.18018 17.8621 6.98371 17.5679 6.73599 17.3202C6.48826 17.0725 6.19414 16.876 5.87044 16.742C5.54675 16.608 5.19981 16.5391 4.84948 16.5393Z" fill="white"/>
</svg>
